PathFileType	4	(X/Y/Z)	D:\TRACE\v60_Jaco2_6-2-23\JustArmDRS_Motion1_2-platform.trc
DataRate	CameraRate	NumFrames	NumMarkers	Units	OrigDataRate	OrigDataStartFrame	OrigNumFrames
100.00	100.00	      62	5	mm	100.00	1	      6808
Frame#	Time	Left_Front			Right_Front			Left_Aft			Right_Aft			Post			
		X1	Y1	Z1	X2	Y2	Z2	X3	Y3	Z3	X4	Y4	Z4	X5	Y5	Z5	

1	0.000	-800.54858	8.86185	-638.83368	769.34619	10.19079	-644.44598	-708.54736	7.82888	496.13489	733.53448	6.99514	505.84628	-14.01342	1308.15735	-961.97021	
2	0.010	-800.53833	8.86081	-638.83405	769.47272	10.14151	-644.33789	-708.56366	7.87424	496.07040	733.57391	6.98275	505.82745	-13.98906	1308.14368	-961.95636	
3	0.020	-800.54382	8.92807	-638.79675	769.43250	10.12129	-644.41290	-708.56018	7.85272	496.12177	733.57721	7.01459	505.83701	-13.94438	1308.15186	-961.92499	
4	0.030	-800.50641	8.87433	-638.86096	769.48523	10.14271	-644.38043	-708.51385	7.84957	496.13510	733.57758	6.99609	505.84064	-14.00391	1308.17065	-961.90173	
5	0.040	-800.55096	8.87791	-638.81561	769.40363	10.14739	-644.42780	-708.52301	7.85110	496.07446	733.51953	7.00107	505.86554	-14.01513	1308.13818	-961.92108	
6	0.050	-800.55756	8.87310	-638.77734	769.36719	10.19568	-644.40924	-708.52728	7.86082	496.11545	733.53870	7.01511	505.84586	-14.01620	1308.17444	-961.90784	
7	0.060	-800.57208	8.92427	-638.77368	769.44031	10.17450	-644.37231	-708.57227	7.84494	496.11505	733.52423	6.99329	505.83398	-14.00317	1308.18335	-961.93610	
8	0.070	-800.51434	8.88026	-638.90240	769.45636	10.16213	-644.40594	-708.54236	7.85962	496.10654	733.56580	7.01641	505.86090	-14.03034	1308.21667	-961.90607	
9	0.080	-800.50482	8.87467	-638.85419	769.47974	10.14168	-644.35431	-708.51727	7.86953	496.08636	733.55444	6.98041	505.84793	-13.98240	1308.17773	-961.96289	
10	0.090	-800.54565	8.87187	-638.84320	769.50336	10.12761	-644.36523	-708.50055	7.83209	496.15689	733.61078	7.00430	505.84689	-14.05466	1308.16113	-961.97131	
11	0.100	-800.58319	8.85657	-638.78168	769.40442	10.15987	-644.37787	-708.52191	7.81315	496.12964	733.57294	6.99670	505.86200	-14.00495	1308.13489	-961.94519	
12	0.110	-800.59991	8.83200	-638.78741	769.45862	10.12834	-644.36853	-708.52661	7.83073	496.14771	733.52539	6.95675	505.83594	-14.03885	1308.11414	-961.94110	
13	0.120	-800.60217	8.87737	-638.84839	769.47913	10.11735	-644.38226	-708.55780	7.85847	496.10907	733.51166	6.96899	505.85876	-14.04797	1308.15320	-961.90472	
14	0.130	-800.59973	8.86748	-638.77991	769.46204	10.17033	-644.37939	-708.60052	7.89186	496.10635	733.45441	6.96844	505.85504	-14.03062	1308.14221	-961.89569	
15	0.140	-800.51758	8.87884	-638.82776	769.44543	10.15352	-644.38190	-708.56952	7.87799	496.09811	733.48102	6.95654	505.85391	-13.98289	1308.16846	-961.90796	
16	0.150	-800.51508	8.82912	-638.84546	769.45569	10.10970	-644.37445	-708.53009	7.85170	496.11319	733.56348	6.98554	505.83328	-14.00111	1308.17554	-961.93005	
17	0.160	-800.59106	8.85593	-638.77429	769.45886	10.14427	-644.37701	-708.49548	7.81721	496.17114	733.57507	6.98739	505.86612	-14.01943	1308.14124	-961.91040	
18	0.170	-800.54572	8.85351	-638.82385	769.48065	10.16020	-644.38977	-708.47113	7.84032	496.12393	733.59369	7.00470	505.86127	-14.02975	1308.12964	-961.90833	
19	0.180	-800.55853	8.88497	-638.82501	769.37842	10.18378	-644.43610	-708.52448	7.82742	496.12964	733.57520	6.97169	505.84766	-13.95270	1308.16577	-961.90613	
20	0.190	-800.51245	8.86171	-638.85345	769.46008	10.14087	-644.40643	-708.54053	7.88499	496.09970	733.54767	6.99395	505.85437	-14.04751	1308.19507	-961.92657	
21	0.200	-800.50708	8.90734	-638.85754	769.47748	10.17294	-644.39587	-708.53070	7.85617	496.10287	733.55414	7.00521	505.84274	-14.03675	1308.19690	-961.93231	
22	0.210	-800.55121	8.89100	-638.82379	769.43561	10.14323	-644.41418	-708.52240	7.86502	496.13007	733.53125	7.00390	505.85614	-13.99633	1308.17017	-961.89923	
23	0.220	-800.55750	8.83978	-638.85779	769.44690	10.16593	-644.37378	-708.59247	7.88356	496.11005	733.52313	7.00911	505.84308	-14.03798	1308.16565	-961.94037	
24	0.230	-800.53601	8.91222	-638.80756	769.48615	10.15908	-644.40771	-708.51868	7.83814	496.13080	733.61273	7.01206	505.84781	-14.01568	1308.17944	-961.95844	
25	0.240	-800.55725	8.89092	-638.83307	769.47742	10.14461	-644.38959	-708.53723	7.78257	496.14090	733.56793	7.00449	505.84799	-14.03677	1308.16797	-961.93683	
26	0.250	-800.50354	8.90329	-638.82867	769.53198	10.17686	-644.32642	-708.53778	7.82623	496.07620	733.56903	7.00393	505.85913	-13.99871	1308.15356	-961.91797	
27	0.260	-800.49255	8.80909	-638.91071	769.50958	10.16430	-644.33643	-708.56067	7.83916	496.10880	733.57599	7.02927	505.84396	-13.98706	1308.15210	-961.90259	
28	0.270	-800.51788	8.83385	-638.84161	769.44385	10.12591	-644.37378	-708.53931	7.86082	496.09750	733.58990	7.04067	505.85925	-14.01922	1308.16284	-961.93146	
29	0.280	-800.50153	8.85587	-638.92365	769.34778	10.14982	-644.44220	-708.59363	7.88591	496.07870	733.56207	7.00406	505.84091	-14.00171	1308.13940	-961.91156	
30	0.290	-800.48676	8.86518	-638.87787	769.45453	10.10124	-644.39398	-708.58496	7.86146	496.08914	733.61591	7.01355	505.84021	-13.98721	1308.14038	-961.89886	
31	0.300	-800.56018	8.89575	-638.77344	769.43457	10.13628	-644.38721	-708.52063	7.81893	496.11441	733.55389	7.00396	505.83344	-14.01419	1308.13477	-961.92651	
32	0.310	-800.53943	8.87893	-638.80414	769.50732	10.11161	-644.36621	-708.48444	7.79086	496.14334	733.54254	6.96029	505.84381	-13.89239	1308.07312	-961.92078	
33	0.320	-800.59528	8.80463	-638.81781	769.47211	10.11269	-644.37775	-708.50891	7.81884	496.11081	733.51782	6.97929	505.86426	-13.95046	1308.10461	-961.92993	
34	0.330	-800.55121	8.82609	-638.87170	769.47614	10.14340	-644.37976	-708.51233	7.82309	496.12140	733.54547	7.01121	505.86166	-13.98716	1308.09375	-961.91052	
35	0.340	-800.54443	8.85536	-638.80933	769.35352	10.19967	-644.40186	-708.54889	7.85562	496.14761	733.56750	7.04386	505.83942	-14.06920	1308.13513	-961.91705	
36	0.350	-800.54749	8.93251	-638.81714	769.43622	10.13210	-644.41876	-708.52728	7.85647	496.09512	733.54114	6.99996	505.87347	-13.96603	1308.14111	-961.93823	
37	0.360	-800.54901	8.87406	-638.79767	769.40161	10.12148	-644.40002	-708.56830	7.89319	496.09384	733.52362	6.99604	505.87494	-14.07047	1308.19177	-961.94006	
38	0.370	-800.59894	8.86840	-638.75916	769.51202	10.15268	-644.34875	-708.53003	7.87912	496.10760	733.47882	6.96673	505.84854	-13.99648	1308.14172	-961.92535	
39	0.380	-800.53735	8.87228	-638.86133	769.46130	10.16197	-644.39783	-708.53162	7.84922	496.11105	733.53638	6.99313	505.83026	-13.96843	1308.12708	-961.94916	
40	0.390	-800.53339	8.87051	-638.86328	769.36719	10.20436	-644.40686	-708.53778	7.86628	496.09265	733.55829	7.01324	505.84018	-13.98004	1308.17297	-961.94653	
41	0.400	-800.57202	8.84965	-638.82343	769.44977	10.15424	-644.37775	-708.53772	7.85742	496.06198	733.59827	7.02463	505.84824	-14.02246	1308.16064	-961.86279	
42	0.410	-800.51508	8.87033	-638.86578	769.49646	10.17062	-644.37952	-708.53369	7.85151	496.07892	733.53638	6.96505	505.84195	-13.99118	1308.19897	-961.93896	
43	0.420	-800.52478	8.82245	-638.86163	769.44983	10.12989	-644.38055	-708.57617	7.92454	496.08453	733.53723	7.00125	505.83051	-14.07212	1308.15222	-961.90533	
44	0.430	-800.50812	8.86674	-638.88373	769.39148	10.14677	-644.41840	-708.59503	7.90992	496.08923	733.54327	6.97613	505.85202	-13.97726	1308.16467	-961.91571	
45	0.440	-800.51550	8.92979	-638.80115	769.43738	10.15075	-644.40729	-708.54163	7.84760	496.09973	733.51367	6.98354	505.83334	-13.98581	1308.16541	-961.89203	
46	0.450	-800.52783	8.86092	-638.85120	769.44757	10.14629	-644.36768	-708.54895	7.86442	496.13110	733.51776	6.97948	505.84134	-14.01673	1308.14319	-961.91876	
47	0.460	-800.53253	8.85467	-638.78796	769.37000	10.15643	-644.44604	-708.50403	7.84616	496.12784	733.58936	7.00217	505.86133	-13.94488	1308.11011	-961.95825	
48	0.470	-800.59613	8.86232	-638.81396	769.45526	10.12230	-644.39465	-708.48926	7.80568	496.15283	733.57129	7.00032	505.84018	-13.94062	1308.09326	-961.91711	
49	0.480	-800.54962	8.84696	-638.85992	769.46765	10.13393	-644.36761	-708.52979	7.78982	496.16125	733.55414	6.96944	505.85617	-13.97353	1308.09814	-961.92444	
50	0.490	-800.58130	8.88993	-638.77484	769.41595	10.10572	-644.39667	-708.54572	7.84003	496.09229	733.52698	6.97262	505.85638	-14.00374	1308.14905	-961.95282	
51	0.500	-800.55658	8.89656	-638.76855	769.43518	10.17589	-644.41699	-708.52661	7.85452	496.07474	733.52643	6.99485	505.84998	-13.96508	1308.15015	-961.96704	
52	0.510	-800.51788	8.81371	-638.81769	769.38129	10.16383	-644.39197	-708.55902	7.86980	496.10080	733.54681	6.99212	505.85703	-14.02061	1308.16138	-961.93262	
53	0.520	-800.58929	8.92237	-638.74377	769.45398	10.13194	-644.33698	-708.55243	7.84468	496.10364	733.48523	7.00104	505.85562	-14.00156	1308.10242	-961.88171	
54	0.530	-800.53748	8.85272	-638.86169	769.38776	10.15154	-644.39874	-708.55658	7.84533	496.10324	733.54205	6.98842	505.83661	-13.97682	1308.10388	-961.95282	
55	0.540	-800.56305	8.85792	-638.79474	769.45813	10.14377	-644.39410	-708.51349	7.85384	496.13327	733.55133	6.99029	505.84692	-13.97866	1308.14099	-961.93115	
56	0.550	-800.53534	8.93450	-638.85669	769.34448	10.20532	-644.39435	-708.52277	7.82722	496.10284	733.59576	7.01511	505.83444	-14.01574	1308.18225	-961.90619	
57	0.560	-800.53271	8.88225	-638.83087	769.49982	10.19329	-644.38385	-708.55109	7.87287	496.10400	733.59875	7.02954	505.82892	-14.00238	1308.18298	-961.91400	
58	0.570	-800.56573	8.90915	-638.81958	769.44098	10.17618	-644.36292	-708.56171	7.86587	496.10953	733.55292	7.00494	505.84503	-14.04356	1308.18445	-961.91449	
59	0.580	-800.53168	8.80876	-638.89111	769.45306	10.14258	-644.40112	-708.53265	7.82061	496.08105	733.49097	6.95933	505.84387	-14.06948	1308.16663	-961.93549	
60	0.590	-800.52374	8.84551	-638.82806	769.37366	10.18716	-644.40375	-708.54962	7.80207	496.12729	733.50574	6.97077	505.83615	-13.97796	1308.17163	-961.89264	
61	0.600	-800.53052	8.83283	-638.87323	769.47876	10.14609	-644.35834	-708.51947	7.82425	496.14566	733.56213	6.99483	505.84692	-14.02858	1308.18518	-961.91095	
62	0.610	-800.54956	8.91650	-638.83539	769.51129	10.15604	-644.34338	-708.51917	7.85872	496.10483	733.55774	7.00835	505.84439	-13.93199	1308.18469	-961.90747	
